<?xml version="1.0" encoding="UTF-8" standalone="no"?>
<svg
   width="128"
   height="128"
   version="1.1"
   id="svg1"
   sodipodi:docname="Label.svg"
   inkscape:version="1.4 (86a8ad7, 2024-10-11)"
   inkscape:export-filename="Label.png"
   inkscape:export-xdpi="96"
   inkscape:export-ydpi="96"
   xmlns:inkscape="http://www.inkscape.org/namespaces/inkscape"
   xmlns:sodipodi="http://sodipodi.sourceforge.net/DTD/sodipodi-0.dtd"
   xmlns="http://www.w3.org/2000/svg"
   xmlns:svg="http://www.w3.org/2000/svg">
  <defs
     id="defs1" />
  <sodipodi:namedview
     id="namedview1"
     pagecolor="#ffffff"
     bordercolor="#000000"
     borderopacity="0.25"
     inkscape:showpageshadow="2"
     inkscape:pageopacity="0.0"
     inkscape:pagecheckerboard="0"
     inkscape:deskcolor="#d1d1d1"
     inkscape:zoom="1.5917969"
     inkscape:cx="-40.520245"
     inkscape:cy="122.18896"
     inkscape:window-width="1920"
     inkscape:window-height="1017"
     inkscape:window-x="1912"
     inkscape:window-y="-8"
     inkscape:window-maximized="1"
     inkscape:current-layer="svg1" />
  <path
     fill="#8eef97"
     d="m 46.095996,19.242379 a 8.9515242,8.9515242 0 0 0 -6.328728,2.622797 L 3.961172,57.671272 a 8.9515242,8.9515242 0 0 0 0,12.657456 l 35.806096,35.806092 a 8.9515242,8.9515242 0 0 0 6.328728,2.6228 h 71.612194 a 8.9515242,8.9515242 0 0 0 8.95152,-8.951523 V 28.193903 a 8.9515242,8.9515242 0 0 0 -8.95152,-8.951524 z m -8.951524,35.806097 a 8.9515242,8.9515242 0 0 1 0,17.903048 8.9515242,8.9515242 0 0 1 0,-17.903048 z"
     id="path1"
     style="stroke-width:8.95152" />
  <path
     fill="#e0e0e0"
     d="m 84.504366,34.147266 a 19.926121,19.926121 0 0 0 -14.087768,5.838354 3.9852242,3.9852242 0 0 0 5.635107,5.635107 11.955672,11.955672 0 0 1 16.905325,0 3.9852242,3.9852242 0 0 0 5.635107,-5.635107 19.926121,19.926121 0 0 0 -14.087771,-5.838354 z M 64.578244,50.072222 a 3.9852242,3.9852242 0 0 0 -3.985224,3.985224 c 0,3.319692 1.303169,6.762925 3.861683,9.96306 1.315124,1.645898 3.068622,3.172238 5.180791,4.272161 a 15.940897,15.940897 0 0 0 -0.54199,1.721616 H 60.59302 a 3.9852246,3.9852246 0 0 0 0,7.970449 h 8.492514 a 15.940897,15.940897 0 0 0 0.717339,2.140065 c -0.565901,0.358671 -1.111877,0.737267 -1.633941,1.127819 -2.335342,1.753498 -4.415629,3.865667 -6.408241,5.858279 a 3.9852242,3.9852242 0 0 0 5.635107,5.631123 c 1.992612,-1.992614 3.89755,-3.873639 5.551417,-5.113044 0.677489,-0.506123 1.23542,-0.809001 1.765454,-1.07601 a 15.940897,15.940897 0 0 0 19.583396,0 c 0.530032,0.267009 1.087963,0.565901 1.761463,1.06804 1.649886,1.239404 3.554825,3.12043 5.547432,5.11304 a 3.9852242,3.9852242 0 0 0 5.63511,-5.635104 c -1.99261,-1.992612 -4.0729,-4.104782 -6.40425,-5.854295 a 24.851858,24.851858 0 0 0 -1.62598,-1.115863 15.940897,15.940897 0 0 0 0.697416,-2.15202 h 8.500484 a 3.9852246,3.9852246 0 0 0 0,-7.970449 h -8.488527 a 15.940897,15.940897 0 0 0 -0.538007,-1.729587 16.407168,16.407168 0 0 0 5.164854,-4.26419 c 2.5625,-3.200135 3.86567,-6.639384 3.86567,-9.96306 a 3.985225,3.985225 0 0 0 -7.97045,0 c 0,0.665532 -0.693433,3.200135 -2.120138,4.98153 -0.99631,1.25136 -2.187893,2.191873 -3.714234,2.654159 a 15.940897,15.940897 0 0 0 -2.40309,-1.641912 7.9704481,7.9704481 0 1 0 -15.410861,0 15.940897,15.940897 0 0 0 -2.407076,1.625971 c -1.52634,-0.466271 -2.709952,-1.402799 -3.710243,-2.654159 -1.426711,-1.781396 -2.12014,-4.315998 -2.12014,-4.98153 A 3.9852242,3.9852242 0 0 0 64.570274,50.04831 Z"
     id="path1-8"
     style="stroke-width:2;fill:#ffffff;fill-opacity:1;stroke:#17a124;stroke-opacity:1;stroke-dasharray:none" />
</svg>
